<?xml version="1.0" encoding="iso-8859-1"?>
<!-- Uploaded to: SVG Repo, www.svgrepo.com, Generator: SVG Repo Mixer Tools -->
<!DOCTYPE svg PUBLIC "-//W3C//DTD SVG 1.1//EN" "http://www.w3.org/Graphics/SVG/1.1/DTD/svg11.dtd">
<svg fill="#000000" version="1.1" id="Capa_1" xmlns="http://www.w3.org/2000/svg" xmlns:xlink="http://www.w3.org/1999/xlink" 
	 width="800px" height="800px" viewBox="0 0 485.619 485.62"
	 xml:space="preserve">
<g>
	<path d="M0,168.566v8.405v8.405v131.678h485.619V185.375v-8.405v-8.405H0z M168.099,281.568h-44.826
		c-44.355,0-80.312-35.957-80.312-80.318c0-5.448,0.598-10.736,1.641-15.875h123.497V281.568z M299.777,281.568H184.91v-96.192
		h114.867V281.568z M362.345,281.568h-45.758v-96.192h124.434c1.04,5.139,1.642,10.427,1.642,15.875
		C442.662,245.611,406.706,281.568,362.345,281.568z M240.942,237.677c29.85,0,53.232-10.463,53.232-23.82
		s-23.383-23.82-53.232-23.82s-53.23,10.463-53.23,23.82S211.093,237.677,240.942,237.677z M240.942,195.647
		c28.066,0,47.629,9.597,47.629,18.215c0,8.619-19.562,18.216-47.629,18.216c-28.066,0-47.628-9.598-47.628-18.216
		C193.314,205.245,212.876,195.647,240.942,195.647z"/>
</g>
</svg>